<svg viewBox="0 0 758.15 471.83" xmlns="http://www.w3.org/2000/svg" xmlns:xlink="http://www.w3.org/1999/xlink"><linearGradient id="a" gradientUnits="userSpaceOnUse" x1="623.68" x2="26.12" y1="309.72" y2="309.72"><stop offset=".45" stop-color="#fff"/><stop offset="1" stop-color="#fff" stop-opacity="0"/></linearGradient><linearGradient id="b" x1="591.22" x2="181.24" xlink:href="#a" y1="191.4" y2="191.4"/><linearGradient id="c" x1="576.9" x2="135.92" xlink:href="#a" y1="231.35" y2="231.35"/><linearGradient id="d" gradientTransform="matrix(-.70463421 -.70957074 .70957074 -.70463421 -2792.58 547.26)" gradientUnits="userSpaceOnUse" x1="-2250.05" x2="-2239.29" y1="2742.19" y2="2742.19"><stop offset="0" stop-color="#fff3b8"/><stop offset=".09" stop-color="#ffdc92"/><stop offset=".19" stop-color="#ffc66d"/><stop offset=".3" stop-color="#ffb551"/><stop offset=".4" stop-color="#ffa93c"/><stop offset=".5" stop-color="#ffa130"/><stop offset=".6" stop-color="#ff9f2c"/></linearGradient><linearGradient id="e" x1="-2251.64" x2="-2242.57" xlink:href="#d" y1="2753.27" y2="2753.27"/><linearGradient id="f" gradientTransform="matrix(.98085332 -.19474795 .19474795 .98085332 2373.99 -2866.15)" x1="-2244.68" x2="-2231.42" xlink:href="#d" y1="2707.08" y2="2710.64"/><linearGradient id="g" gradientTransform="matrix(.98 -.19 .19 .98 2318.86 -2763.41)" gradientUnits="userSpaceOnUse" x1="-2237.95" x2="-2212.37" y1="2640.53" y2="2647.39"><stop offset="0" stop-color="#9e1bce"/><stop offset=".13" stop-color="#b9328c"/><stop offset=".26" stop-color="#d14650"/><stop offset=".38" stop-color="#e35525"/><stop offset=".47" stop-color="#ee5f0a"/><stop offset=".52" stop-color="#f26200"/></linearGradient><linearGradient id="h" gradientTransform="matrix(.98085332 -.19474795 .19474795 .98085332 2354.91 -2829.75)" x1="-2232.1" x2="-2235.36" xlink:href="#g" y1="2681.46" y2="2690.41"/><linearGradient id="i" x1="-2311.92" x2="-2301.15" xlink:href="#d" y1="2659.58" y2="2659.58"/><linearGradient id="j" x1="-2317.04" x2="-2307.96" xlink:href="#d" y1="2669.24" y2="2669.24"/><linearGradient id="k" gradientTransform="matrix(.86118592 -.50829008 .50829008 .86118592 1321.19 -3110.35)" x1="-2295.1" x2="-2283.43" xlink:href="#d" y1="2626.24" y2="2634.41"/><linearGradient id="l" gradientTransform="matrix(.86118592 -.50829008 .50829008 .86118592 1257.06 -3027.9)" x1="-2266.83" x2="-2244.42" xlink:href="#g" y1="2565.5" y2="2581.19"/><linearGradient id="m" gradientTransform="matrix(.86118592 -.50829008 .50829008 .86118592 1298.87 -3081.07)" x1="-2275.67" x2="-2279.53" xlink:href="#g" y1="2606.78" y2="2613.46"/><linearGradient id="n" x1="-2392.05" x2="-2381.29" xlink:href="#d" y1="2570.57" y2="2570.57"/><linearGradient id="o" x1="-2399.42" x2="-2390.35" xlink:href="#d" y1="2578.4" y2="2578.4"/><linearGradient id="p" gradientTransform="matrix(.70463421 -.70957074 .70957074 .70463421 536.64 -3041.34)" x1="-2366.44" x2="-2358.68" xlink:href="#d" y1="2542.74" y2="2550.51"/><linearGradient id="q" gradientTransform="matrix(.70463421 -.70957074 .70957074 .70463421 470.48 -2975.65)" x1="-2323.35" x2="-2307.87" xlink:href="#g" y1="2492.26" y2="2507.75"/><linearGradient id="r" gradientTransform="matrix(.70463421 -.70957074 .70957074 .70463421 513.55 -3017.96)" x1="-2343.45" x2="-2348.89" xlink:href="#g" y1="2525.32" y2="2534.75"/><path d="m318.8 406.86c-35.32 0-71.28-8.43-107-25.11-30.9-14.43-61.8-35.08-91.8-61.39-50.75-44.36-84.69-92.43-93.88-106.1l2.49-1.67c9.14 13.59 42.89 61.41 93.31 105.51 29.84 26.13 60.51 46.62 91.15 60.93 37.57 17.54 75.4 25.85 112.39 24.73 57.8-1.77 131-26.32 217.62-73a687.47 687.47 0 0 0 78.83-49.66l1.77 2.42a692.07 692.07 0 0 1 -79.17 49.88c-87 46.89-160.69 71.57-219 73.35q-3.33.12-6.71.11z" fill="url(#a)"/><path d="m508.22 358.15q-10.61 0-21.2-.84c-80.75-6.4-134.17-47.2-159.85-66.81-49.48-37.8-88-89-114.59-152.17a468.32 468.32 0 0 1 -31.34-113.25l3-.42a465.77 465.77 0 0 0 31.13 112.51c26.32 62.68 64.56 113.47 113.63 150.94 25.45 19.44 78.4 59.88 158.26 66.21a270.84 270.84 0 0 0 103.07-12l.9 2.86a276 276 0 0 1 -83.01 12.97z" fill="url(#b)"/><path d="m545.18 433.38c-10.26 0-22.82-.47-37.38-1.89-39.92-3.88-103.6-15.86-180.34-50.87-1.26-.67-29.44-16-67.35-67.05-22.21-29.88-43.11-65.85-62.11-106.9-23.79-51.28-44.67-110.67-62.08-176.59l2.9-.77c21.68 82 60.7 197.58 123.51 282.22 37.55 50.58 66.17 66.25 66.46 66.4 76.21 34.77 139.5 46.69 179.15 50.56 43 4.2 68.22.11 68.47.07l.49 3c-.16-.01-11.47 1.82-31.72 1.82z" fill="url(#c)"/><rect fill="#ff9f2c" height="43.14" rx="2.65" transform="matrix(-.55280993 -.83330738 .83330738 -.55280993 948.84 937.2)" width="6.14" x="722.82" y="192.44"/><circle cx="734.89" cy="208.04" fill="url(#d)" r="5.38"/><circle cx="744.46" cy="201.96" fill="url(#e)" r="4.54"/><rect fill="url(#f)" height="52" rx="3.81" transform="matrix(-.55280993 -.83330738 .83330738 -.55280993 908.17 941.01)" width="10.82" x="701.16" y="200.83"/><rect fill="url(#g)" height="87.79" rx="6.83" transform="matrix(-.55280993 -.83330738 .83330738 -.55280993 792.08 951.86)" width="21.63" x="640.62" y="219.51"/><rect fill="url(#h)" height="7.59" rx="2.8" transform="matrix(-.55280993 -.83330738 .83330738 -.55280993 867.29 945.23)" width="18.46" x="678.03" y="236.11"/><rect fill="#ff9f2c" height="43.14" rx="2.65" transform="matrix(-.24598413 -.96927386 .96927386 -.24598413 580.72 1077.34)" width="6.14" x="706.32" y="291.23"/><circle cx="719.86" cy="310.14" fill="url(#i)" r="5.38"/><circle cx="730.91" cy="307.57" fill="url(#j)" r="4.54"/><rect fill="url(#k)" height="52" rx="3.81" transform="matrix(-.24598413 -.96927386 .96927386 -.24598413 547.2 1062.67)" width="10.82" x="681.52" y="292.5"/><rect fill="url(#l)" height="87.79" rx="6.83" transform="matrix(-.24598413 -.96927386 .96927386 -.24598413 451.51 1020.79)" width="21.63" x="611.98" y="290.89"/><rect fill="url(#m)" height="7.59" rx="2.8" transform="matrix(-.24598413 -.96927386 .96927386 -.24598413 513.33 1048.24)" width="18.46" x="655.15" y="320.67"/><rect fill="#ff9f2c" height="43.14" rx="2.65" transform="matrix(.00715579 -.9999744 .9999744 .00715579 267.7 1128.92)" width="6.14" x="699.28" y="408.09"/><circle cx="713.15" cy="429.73" fill="url(#n)" r="5.38"/><circle cx="724.5" cy="430.04" fill="url(#o)" r="4.54"/><rect fill="url(#p)" height="52" rx="3.81" transform="matrix(.00715579 -.9999744 .9999744 .00715579 244.85 1105.59)" width="10.82" x="673.77" y="403.49"/><rect fill="url(#q)" height="87.79" rx="6.83" transform="matrix(.00715579 -.9999744 .9999744 .00715579 179.63 1038.95)" width="21.63" x="602.19" y="385.12"/><rect fill="url(#r)" height="7.59" rx="2.8" transform="matrix(.00715579 -.9999744 .9999744 .00715579 221.64 1082.32)" width="18.46" x="646.62" y="425.76"/></svg>