<?xml version="1.0" standalone="no"?>
<!DOCTYPE svg PUBLIC "-//W3C//DTD SVG 20010904//EN"
 "http://www.w3.org/TR/2001/REC-SVG-20010904/DTD/svg10.dtd">
<svg version="1.0" xmlns="http://www.w3.org/2000/svg"
 width="555.000000pt" height="555.000000pt" viewBox="0 0 555.000000 555.000000"
 preserveAspectRatio="xMidYMid meet">

<g transform="translate(0.000000,555.000000) scale(0.100000,-0.100000)"
fill="#000000" stroke="none">
<path d="M0 2775 l0 -2775 2771 0 2771 0 -278 193 c-154 106 -331 229 -394
274 l-115 80 -240 52 c-1490 325 -2654 776 -3099 1202 -110 104 -157 171 -181
252 -39 135 29 229 183 251 40 6 42 5 42 -19 0 -19 -5 -25 -22 -25 -47 0 -103
-23 -136 -56 -33 -33 -34 -37 -30 -92 5 -77 39 -140 121 -228 388 -416 1485
-865 2917 -1193 293 -67 353 -80 344 -72 -5 5 -101 75 -214 157 -466 336 -906
678 -1170 909 -97 85 -136 113 -138 101 -2 -9 -5 -16 -7 -16 -9 0 -266 79
-275 85 -5 3 -10 45 -10 94 l0 87 -137 77 -138 76 -5 -53 -5 -53 -112 84
c-101 74 -113 86 -113 113 0 28 2 30 28 24 18 -4 3 10 -48 45 -41 28 -85 51
-97 51 -12 0 -31 12 -42 28 -33 43 -32 43 -147 132 -138 109 -377 344 -439
435 -27 39 -52 74 -56 78 -4 5 -18 1 -32 -8 -24 -16 -27 -15 -46 4 -23 23 -28
79 -11 111 8 15 5 31 -14 67 -90 180 -140 452 -105 578 13 46 77 115 108 115
31 0 27 -36 -6 -52 -50 -24 -68 -71 -67 -178 1 -153 33 -277 113 -440 45 -91
128 -223 168 -265 10 -11 53 -61 95 -111 43 -50 100 -109 128 -133 l50 -42 0
122 0 122 53 -7 c28 -3 71 -6 95 -6 l42 0 0 -146 0 -147 -37 6 c-21 4 -53 10
-72 13 -47 10 -38 -2 67 -86 84 -68 87 -69 98 -48 26 48 82 38 109 -19 10 -20
15 -48 13 -65 -4 -27 1 -33 94 -94 54 -35 120 -77 147 -92 26 -15 79 -45 117
-68 127 -75 204 -116 204 -107 0 5 -20 37 -44 72 -24 34 -49 75 -56 90 -8 20
-23 32 -48 39 -44 13 -72 54 -72 105 0 49 8 65 40 82 18 9 31 26 35 46 9 40
58 95 107 120 l38 19 0 105 c0 104 0 105 23 100 18 -4 235 -25 260 -25 4 0 7
-31 7 -70 l0 -70 -74 0 c-40 0 -101 -3 -135 -6 l-61 -7 0 -42 c0 -28 5 -45 15
-48 8 -4 68 -3 135 0 l120 6 0 -60 0 -59 -72 12 c-40 6 -106 17 -145 24 l-73
12 0 34 c0 19 -5 34 -10 34 -35 0 -100 -77 -100 -117 0 -11 9 -28 20 -38 25
-22 35 -76 22 -114 -9 -24 -6 -36 18 -78 15 -27 34 -54 42 -61 10 -8 271 -72
295 -72 2 0 3 -42 3 -93 l0 -94 108 -51 c379 -180 928 -392 1487 -575 227 -74
718 -224 798 -243 l27 -6 0 2241 0 2241 -2775 0 -2775 0 0 -2775z m2782 2086
c29 -26 32 -34 32 -83 0 -118 -103 -212 -185 -168 -26 15 -49 62 -49 103 0 51
48 136 90 158 48 26 74 24 112 -10z m-517 -127 c45 -18 58 -111 24 -182 -38
-77 -124 -95 -156 -32 -51 100 41 249 132 214z m-405 -132 c53 -43 27 -184
-39 -212 -29 -12 -34 -11 -55 9 -47 44 -40 139 14 193 33 33 49 35 80 10z
m1515 -17 c30 -29 33 -80 9 -131 -31 -66 -124 -87 -163 -38 -76 97 69 255 154
169z m-1865 -75 c26 -14 41 -76 30 -123 -15 -70 -78 -111 -110 -72 -19 23 -24
100 -10 135 11 26 53 70 67 70 2 0 13 -5 23 -10z m1241 -59 c20 -16 24 -29 24
-69 0 -42 -5 -56 -29 -81 -68 -71 -152 -14 -125 84 11 37 60 85 89 85 10 0 28
-9 41 -19z m-487 -113 c49 -70 -34 -197 -93 -144 -24 22 -31 60 -19 102 16 60
82 85 112 42z m-415 -71 c33 -41 16 -123 -30 -148 -54 -29 -86 86 -38 137 25
27 51 31 68 11z m1291 -156 c0 -94 -4 -172 -9 -175 -5 -3 -53 -10 -107 -16
-55 -5 -118 -13 -142 -16 l-42 -6 2 168 3 169 125 21 c192 33 170 53 170 -145z
m-1630 70 c25 -49 0 -131 -40 -131 -36 0 -53 67 -29 113 22 41 52 49 69 18z
m1050 -150 l0 -159 -42 -6 c-24 -3 -78 -9 -120 -12 l-78 -7 0 147 c0 108 3
148 13 151 6 3 59 13 117 24 58 10 106 19 108 20 1 0 2 -70 2 -158z m-458 -62
c2 -78 0 -143 -4 -145 -4 -3 -50 -7 -102 -11 l-96 -6 0 132 c0 96 3 133 13
136 9 4 150 30 179 34 4 1 8 -62 10 -140z m-382 47 c0 -23 -4 -25 -64 -28 -77
-4 -96 -1 -96 17 0 8 22 16 58 23 95 16 102 15 102 -12z m0 -176 c0 -57 2 -56
-92 -64 l-68 -7 0 61 0 60 80 0 80 0 0 -50z m1654 -1 c66 -78 -2 -203 -100
-184 -44 8 -66 37 -72 95 -4 46 -2 52 31 85 28 28 43 35 75 35 33 0 45 -6 66
-31z m-639 -35 c21 -8 45 -56 45 -89 0 -40 -26 -81 -61 -95 -87 -36 -138 91
-67 167 21 23 51 29 83 17z m-485 -52 c31 -25 37 -88 10 -130 -17 -28 -25 -33
-53 -30 -66 6 -83 122 -24 163 28 19 40 19 67 -3z m-407 -30 c45 -49 23 -142
-33 -142 -36 0 -50 23 -50 79 0 28 7 48 20 61 25 25 42 25 63 2z m-339 -38
c32 -32 10 -134 -29 -134 -21 0 -45 40 -45 75 0 35 24 75 45 75 7 0 21 -7 29
-16z m1636 -296 l0 -181 -97 6 c-54 4 -122 7 -150 7 l-53 0 0 170 0 169 88 4
c48 1 115 4 150 5 l62 2 0 -182z m-572 62 c2 -52 0 -123 -3 -157 l-7 -63 -101
0 c-56 0 -107 4 -114 8 -7 5 -12 56 -15 152 l-3 145 90 6 c50 3 104 5 120 5
l30 -1 3 -95z m-468 -65 l0 -145 -72 0 c-126 0 -118 -9 -118 146 l0 133 58 4
c31 2 74 4 95 5 l37 2 0 -145z m-380 -6 l0 -130 -47 3 -46 3 -33 125 c-18 69
-33 126 -34 128 0 1 36 2 80 2 l80 0 0 -131z m110 -189 c27 -14 44 -78 31
-112 -16 -42 -44 -52 -75 -27 -34 27 -37 98 -6 129 23 23 25 23 50 10z m430
-52 c24 -40 25 -69 5 -108 -15 -28 -29 -35 -65 -31 -45 6 -67 102 -34 149 24
35 70 30 94 -10z m491 -14 c18 -20 24 -37 24 -74 0 -60 -24 -90 -72 -90 -49 0
-83 39 -83 95 0 86 77 127 131 69z m583 6 c53 -20 83 -110 54 -163 -17 -34
-39 -46 -80 -47 -50 0 -96 41 -105 92 -13 87 54 148 131 118z m-1614 -172 c0
-19 -2 -20 -10 -8 -13 19 -13 30 0 30 6 0 10 -10 10 -22z m808 -54 l32 -5 0
-154 c0 -175 7 -164 -87 -146 -26 6 -69 13 -95 16 l-48 6 0 150 0 150 83 -6
c45 -3 97 -8 115 -11z m-1024 -226 c29 -40 13 -129 -22 -128 -25 1 -52 46 -52
85 0 61 44 86 74 43z m326 -38 c30 -16 46 -81 29 -116 -19 -38 -61 -44 -83
-12 -21 29 -21 102 0 122 18 19 28 20 54 6z m1495 -254 c86 -36 102 -174 24
-206 -47 -20 -107 9 -133 65 -25 52 -21 92 13 126 33 33 47 35 96 15z"/>
<path d="M3130 1881 c0 -5 39 -44 88 -87 48 -44 89 -81 92 -84 17 -19 221
-188 375 -310 307 -244 1043 -787 1098 -810 23 -10 329 -71 577 -115 80 -14
155 -28 168 -30 l22 -5 0 289 0 290 -72 21 c-692 202 -1203 374 -1710 576
-205 82 -322 132 -585 250 -29 13 -53 20 -53 15z"/>
<path d="M4885 513 c6 -6 145 -104 310 -218 165 -115 312 -217 328 -227 l27
-19 0 174 0 175 -47 7 c-48 7 -555 101 -603 112 -17 4 -22 2 -15 -4z"/>
</g>
</svg>
